<svg xmlns="http://www.w3.org/2000/svg" xmlns:xlink="http://www.w3.org/1999/xlink" viewBox="0,0,256,256" width="100px" height="100px"><g fill="none" fill-rule="nonzero" stroke="none" stroke-width="1" stroke-linecap="butt" stroke-linejoin="miter" stroke-miterlimit="10" stroke-dasharray="" stroke-dashoffset="0" font-family="none" font-weight="none" font-size="none" text-anchor="none" style="mix-blend-mode: normal"><g transform="scale(5.33333,5.33333)"><path d="M42.444,10.385l-8.819,-4.14c-0.025,-0.012 -0.052,-0.015 -0.078,-0.024c-0.012,-0.005 -0.021,-0.014 -0.033,-0.019c-0.029,-0.011 -0.059,-0.009 -0.088,-0.019c-0.031,-0.007 -0.062,-0.016 -0.093,-0.02c-0.854,-0.248 -1.759,-0.01 -2.339,0.648l-12.98,12.937l-7.478,-5.093c-0.979,-0.826 -2.377,-0.938 -3.486,-0.271l-3.159,1.949c-0.012,0.007 -0.018,0.021 -0.029,0.029c-0.533,0.366 -0.862,0.96 -0.862,1.638v16c0,0.678 0.329,1.272 0.861,1.637c0.012,0.008 0.017,0.021 0.029,0.029l3.169,1.956c0.479,0.288 1.016,0.429 1.548,0.429c0.688,0 1.37,-0.235 1.917,-0.695l7.49,-5.102l12.96,12.917c0.448,0.508 1.072,0.781 1.717,0.781c0.274,0 0.553,-0.05 0.822,-0.152c0.021,-0.008 0.036,-0.023 0.057,-0.032c0.018,-0.007 0.037,-0.004 0.055,-0.012l8.728,-4.102c1.583,-0.559 2.647,-2.072 2.647,-3.764v-23.78c0,-1.692 -1.064,-3.205 -2.556,-3.725zM25.688,26.001l7.312,-4.958v9.915z" fill="#bbbbbb"></path><path d="M9,19.13v9.74l-3.2,3.74c-0.58,0.76 -1.8,0.35 -1.8,-0.61v-16c0,-0.96 1.22,-1.37 1.8,-0.61z" fill="#ffffff"></path><path d="M5.025,34.008c-0.219,0 -0.443,-0.036 -0.663,-0.11c-0.828,-0.281 -1.362,-1.025 -1.362,-1.898v-16c0,-0.873 0.534,-1.617 1.362,-1.897c0.828,-0.279 1.704,-0.012 2.232,0.681l3.165,3.696c0.156,0.181 0.241,0.412 0.241,0.65v9.74c0,0.238 -0.085,0.469 -0.24,0.65l-3.2,3.74c-0.363,0.477 -0.931,0.748 -1.535,0.748zM5.04,16.04l-0.04,15.96l3,-3.5v-9.001z" fill="#bbbbbb"></path><path d="M4.416,32.815l3.159,1.95c0.733,0.44 1.664,0.365 2.318,-0.185l24.107,-17.642v-10.585c0,-1.198 -1.482,-1.758 -2.275,-0.86z" fill="#ffffff"></path><path d="M8.619,36.054c-0.534,0 -1.075,-0.142 -1.56,-0.432l-3.169,-1.956c-0.26,-0.16 -0.433,-0.431 -0.468,-0.734c-0.035,-0.303 0.069,-0.606 0.286,-0.823l27.31,-27.323c0.596,-0.68 1.591,-0.927 2.496,-0.584c0.903,0.341 1.486,1.186 1.486,2.151v10.586c0,0.319 -0.152,0.619 -0.409,0.807l-24.108,17.641c-0.519,0.439 -1.185,0.667 -1.864,0.667zM6.017,32.628l2.084,1.286c0.354,0.213 0.82,0.176 1.148,-0.099l23.751,-17.383v-10.079c0,-0.171 -0.105,-0.247 -0.193,-0.28c-0.089,-0.033 -0.218,-0.047 -0.332,0.083z" fill="#bbbbbb"></path><path d="M4.416,15.185l3.159,-1.95c0.733,-0.44 1.664,-0.365 2.318,0.185l24.107,17.643v10.585c0,1.198 -1.482,1.758 -2.275,0.86z" fill="#ffffff"></path><path d="M32.691,43.951c-0.645,0 -1.269,-0.273 -1.717,-0.781l-27.265,-27.278c-0.217,-0.217 -0.321,-0.52 -0.286,-0.823c0.035,-0.303 0.208,-0.574 0.468,-0.734l3.159,-1.949c1.109,-0.667 2.507,-0.555 3.486,0.271l24.055,17.602c0.257,0.186 0.409,0.485 0.409,0.804v10.585c0,0.965 -0.583,1.81 -1.486,2.15c-0.27,0.103 -0.548,0.153 -0.823,0.153zM6.017,15.372l26.415,26.429c0.158,0.176 0.289,0.163 0.375,0.128c0.088,-0.033 0.193,-0.11 0.193,-0.281v-10.077l-23.698,-17.344c-0.38,-0.315 -0.845,-0.354 -1.211,-0.134z" fill="#bbbbbb"></path><path d="M44,12.11v23.78c0,1.27 -0.79,2.4 -1.98,2.82l-8.82,4.14l0.8,-10.85c0,0 0,-11.5 0,-16c0,-5 -0.8,-10.85 -0.8,-10.85l8.82,4.14c1.19,0.42 1.98,1.55 1.98,2.82z" fill="#ffffff"></path><path d="M33.2,43.85c-0.214,0 -0.427,-0.068 -0.604,-0.202c-0.296,-0.225 -0.443,-0.594 -0.383,-0.96c0.009,-0.048 0.787,-4.847 0.787,-10.688v-16c0,-5.851 -0.778,-10.64 -0.786,-10.687c-0.061,-0.367 0.087,-0.736 0.383,-0.961c0.297,-0.225 0.692,-0.265 1.028,-0.107l8.819,4.14c1.492,0.52 2.556,2.033 2.556,3.725v23.78c0,1.692 -1.064,3.205 -2.647,3.764l-8.728,4.102c-0.135,0.062 -0.28,0.094 -0.425,0.094zM34.442,6.837c0.239,1.967 0.558,5.316 0.558,9.163v16c0,3.846 -0.319,7.195 -0.558,9.162l7.152,-3.357c0.879,-0.315 1.406,-1.07 1.406,-1.915v-23.78c0,-0.846 -0.527,-1.601 -1.313,-1.877z" fill="#bbbbbb"></path></g></g></svg>