<svg xmlns="http://www.w3.org/2000/svg" version="1.1" xmlns:xlink="http://www.w3.org/1999/xlink" xmlns:svgjs="http://svgjs.dev/svgjs" width="1500" height="1909" viewBox="0 0 1500 1909"><g transform="matrix(1,0,0,1,-1.3399323427928493,0.7728744939271337)"><svg viewBox="0 0 194 247" data-background-color="#000000" preserveAspectRatio="xMidYMid meet" height="1909" width="1500" xmlns="http://www.w3.org/2000/svg" xmlns:xlink="http://www.w3.org/1999/xlink"><g id="tight-bounds" transform="matrix(1,0,0,1,0.1732979163345476,-0.09999999999999432)"><svg viewBox="0 0 193.6534041673309 247.2" height="247.2" width="193.6534041673309"><rect width="193.6534041673309" height="247.2" fill="url(#5d60bd18-6959-42d7-ad0f-e8f184dd7346)" mask="url(#40187ba0-4586-4d98-b104-2e19ee56a610)" data-fill-palette-color="tertiary"></rect><g><svg viewBox="0 0 290.472747421638 370.7906064" height="247.2" width="193.6534041673309"><g><svg viewBox="0 0 290.472747421638 370.7906064" height="370.7906064" width="290.472747421638"><g id="textblocktransform"><svg viewBox="0 0 290.472747421638 370.7906064" height="370.7906064" width="290.472747421638" id="textblock"><g><rect width="290.472747421638" height="247.2" fill="none" stroke-width="9.018103199999999" stroke="url(#5d60bd18-6959-42d7-ad0f-e8f184dd7346)" data-fill-palette-color="none" data-stroke-palette-color="tertiary"></rect><rect width="290.472747421638" height="123.5906064" y="247.2" fill="url(#5d60bd18-6959-42d7-ad0f-e8f184dd7346)" data-fill-palette-color="tertiary"></rect></g><g><svg viewBox="0 0 290.472747421638 247.2" height="247.2" width="290.472747421638"><g transform="matrix(1,0,0,1,23.607599999999998,23.607599999999998)"><svg width="243.25754742163804" viewBox="0.85 -45.15 60.15 49.449999999999996" height="199.9848" data-palette-color="url(#36e456ed-30c7-4a63-8a1c-51c8a33ee963)"></svg></g></svg></g></svg></g></svg></g></svg></g><defs></defs><mask id="d1e2a609-c573-403a-b9b8-5ee0f4c9096f"><g id="SvgjsG7257"><svg viewBox="0 0 193.6534041673309 247.2" height="247.2" width="193.6534041673309"><g><svg viewBox="0 0 290.472747421638 370.7906064" height="247.2" width="193.6534041673309"><g><svg viewBox="0 0 290.472747421638 370.7906064" height="370.7906064" width="290.472747421638"><g id="SvgjsG7256"><svg viewBox="0 0 290.472747421638 370.7906064" height="370.7906064" width="290.472747421638" id="SvgjsSvg7255"><g><rect width="290.472747421638" height="247.2" fill="black" stroke-width="9.018103199999999" stroke="url(#5d60bd18-6959-42d7-ad0f-e8f184dd7346)" data-stroke-palette-color="tertiary"></rect><rect width="290.472747421638" height="123.5906064" y="247.2" fill="black"></rect></g><g><svg viewBox="0 0 290.472747421638 247.2" height="247.2" width="290.472747421638"><g transform="matrix(1,0,0,1,23.607599999999998,23.607599999999998)"><svg width="243.25754742163804" viewBox="0.85 -45.15 60.15 49.449999999999996" height="199.9848" data-palette-color="url(#36e456ed-30c7-4a63-8a1c-51c8a33ee963)"><path d="M11.45-39.05L2.7-39.05 2.7-45.15 11.45-45.15 11.45-39.05ZM4.55 4.3Q1.7 4.3 0.85 3.65L0.85 3.65 0.85-2.2Q1.1-2.1 1.65-2.1L1.65-2.1Q2.3-2.1 2.5-2.53 2.7-2.95 2.7-3.8L2.7-3.8 2.7-36.6 11.45-36.6 11.45-4.05Q11.45 0 9.8 2.15 8.15 4.3 4.55 4.3L4.55 4.3ZM25.55 0.4Q14.6 0.4 14.6-10.95L14.6-10.95 14.6-25.65Q14.6-30.85 17.52-33.93 20.45-37 25.55-37L25.55-37Q30.65-37 33.57-33.93 36.5-30.85 36.5-25.65L36.5-25.65 36.5-10.95Q36.5 0.4 25.55 0.4L25.55 0.4ZM25.55-6.35Q26.6-6.35 27.1-7.1 27.6-7.85 27.6-9.15L27.6-9.15 27.6-27.05Q27.6-30.25 25.55-30.25L25.55-30.25Q23.5-30.25 23.5-27.05L23.5-27.05 23.5-9.15Q23.5-7.85 24-7.1 24.5-6.35 25.55-6.35L25.55-6.35ZM50 0.4Q44.35 0.4 41.9-2.7 39.45-5.8 39.45-11.95L39.45-11.95 39.45-26.65Q39.45-31.7 42.35-34.35 45.25-37 50.45-37L50.45-37Q61-37 61-26.65L61-26.65 61-24Q61-20 60.9-17.5L60.9-17.5 48.2-17.5 48.2-10.4Q48.2-8.5 48.6-7.43 49-6.35 50.3-6.35L50.3-6.35Q51.3-6.35 51.72-6.95 52.15-7.55 52.22-8.33 52.3-9.1 52.3-10.6L52.3-10.6 52.3-14.15 61-14.15 61-12.05Q61-5.65 58.52-2.63 56.05 0.4 50 0.4L50 0.4ZM48.15-21.85L52.3-21.85 52.3-26.55Q52.3-30.5 50.35-30.5L50.35-30.5Q48.15-30.5 48.15-26.55L48.15-26.55 48.15-21.85Z" opacity="1" transform="matrix(1,0,0,1,0,0)" fill="white" class="wordmark-text-0" id="SvgjsPath7254"></path></svg></g></svg></g></svg></g></svg></g></svg></g><defs><mask></mask></defs></svg><rect width="193.6534041673309" height="247.2" fill="black" stroke="none" visibility="hidden"></rect></g></mask><linearGradient x1="0" x2="1" y1="0.5" y2="0.5" id="36e456ed-30c7-4a63-8a1c-51c8a33ee963"><stop stop-color="#f00b51" offset="0"></stop><stop stop-color="#730062" offset="1"></stop></linearGradient><rect width="193.6534041673309" height="247.2" fill="url(#36e456ed-30c7-4a63-8a1c-51c8a33ee963)" mask="url(#d1e2a609-c573-403a-b9b8-5ee0f4c9096f)" data-fill-palette-color="primary"></rect><mask id="40187ba0-4586-4d98-b104-2e19ee56a610"><g id="SvgjsG7280"><svg viewBox="0 0 193.6534041673309 247.2" height="247.2" width="193.6534041673309"><g><svg viewBox="0 0 290.472747421638 370.7906064" height="247.2" width="193.6534041673309"><g><svg viewBox="0 0 290.472747421638 370.7906064" height="370.7906064" width="290.472747421638"><g id="SvgjsG7279"><svg viewBox="0 0 290.472747421638 370.7906064" height="370.7906064" width="290.472747421638" id="SvgjsSvg7278"><g><rect width="290.472747421638" height="247.2" fill="black" stroke-width="9.018103199999999" stroke="url(#5d60bd18-6959-42d7-ad0f-e8f184dd7346)" data-stroke-palette-color="tertiary"></rect><rect width="290.472747421638" height="123.5906064" y="247.2" fill="white"></rect></g><g><svg viewBox="0 0 290.472747421638 247.2" height="247.2" width="290.472747421638"><g transform="matrix(1,0,0,1,23.607599999999998,23.607599999999998)"><svg width="243.25754742163804" viewBox="0.85 -45.15 60.15 49.449999999999996" height="199.9848" data-palette-color="url(#36e456ed-30c7-4a63-8a1c-51c8a33ee963)"></svg></g></svg></g></svg></g></svg></g></svg></g><defs><mask></mask></defs><mask><g id="SvgjsG7277"><svg viewBox="0 0 193.6534041673309 247.2" height="247.2" width="193.6534041673309"><g><svg viewBox="0 0 290.472747421638 370.7906064" height="247.2" width="193.6534041673309"><g><svg viewBox="0 0 290.472747421638 370.7906064" height="370.7906064" width="290.472747421638"><g id="SvgjsG7276"><svg viewBox="0 0 290.472747421638 370.7906064" height="370.7906064" width="290.472747421638" id="SvgjsSvg7275"><g><rect width="290.472747421638" height="247.2" fill="black" stroke-width="9.018103199999999" stroke="url(#5d60bd18-6959-42d7-ad0f-e8f184dd7346)" data-stroke-palette-color="tertiary"></rect><rect width="290.472747421638" height="123.5906064" y="247.2" fill="black"></rect></g><g><svg viewBox="0 0 290.472747421638 247.2" height="247.2" width="290.472747421638"><g transform="matrix(1,0,0,1,23.607599999999998,23.607599999999998)"><svg width="243.25754742163804" viewBox="0.85 -45.15 60.15 49.449999999999996" height="199.9848" data-palette-color="url(#36e456ed-30c7-4a63-8a1c-51c8a33ee963)"><path d="M11.45-39.05L2.7-39.05 2.7-45.15 11.45-45.15 11.45-39.05ZM4.55 4.3Q1.7 4.3 0.85 3.65L0.85 3.65 0.85-2.2Q1.1-2.1 1.65-2.1L1.65-2.1Q2.3-2.1 2.5-2.53 2.7-2.95 2.7-3.8L2.7-3.8 2.7-36.6 11.45-36.6 11.45-4.05Q11.45 0 9.8 2.15 8.15 4.3 4.55 4.3L4.55 4.3ZM25.55 0.4Q14.6 0.4 14.6-10.95L14.6-10.95 14.6-25.65Q14.6-30.85 17.52-33.93 20.45-37 25.55-37L25.55-37Q30.65-37 33.57-33.93 36.5-30.85 36.5-25.65L36.5-25.65 36.5-10.95Q36.5 0.4 25.55 0.4L25.55 0.4ZM25.55-6.35Q26.6-6.35 27.1-7.1 27.6-7.85 27.6-9.15L27.6-9.15 27.6-27.05Q27.6-30.25 25.55-30.25L25.55-30.25Q23.5-30.25 23.5-27.05L23.5-27.05 23.5-9.15Q23.5-7.85 24-7.1 24.5-6.35 25.55-6.35L25.55-6.35ZM50 0.4Q44.35 0.4 41.9-2.7 39.45-5.8 39.45-11.95L39.45-11.95 39.45-26.65Q39.45-31.7 42.35-34.35 45.25-37 50.45-37L50.45-37Q61-37 61-26.65L61-26.65 61-24Q61-20 60.9-17.5L60.9-17.5 48.2-17.5 48.2-10.4Q48.2-8.5 48.6-7.43 49-6.35 50.3-6.35L50.3-6.35Q51.3-6.35 51.72-6.95 52.15-7.55 52.22-8.33 52.3-9.1 52.3-10.6L52.3-10.6 52.3-14.15 61-14.15 61-12.05Q61-5.65 58.52-2.63 56.05 0.4 50 0.4L50 0.4ZM48.15-21.85L52.3-21.85 52.3-26.55Q52.3-30.5 50.35-30.5L50.35-30.5Q48.15-30.5 48.15-26.55L48.15-26.55 48.15-21.85Z" opacity="1" transform="matrix(1,0,0,1,0,0)" fill="black" class="wordmark-text-0" id="SvgjsPath7274"></path></svg></g></svg></g></svg></g></svg></g></svg></g><defs><mask></mask></defs></svg><rect width="193.6534041673309" height="247.2" fill="black" stroke="none" visibility="hidden"></rect></g></mask></svg><rect width="193.6534041673309" height="247.2" fill="black" stroke="none" visibility="hidden"></rect></g></mask><linearGradient x1="0" x2="1" y1="0.5" y2="0.5" id="5d60bd18-6959-42d7-ad0f-e8f184dd7346"><stop stop-color="#f00b51" offset="0"></stop><stop stop-color="#730062" offset="1"></stop></linearGradient></svg><rect width="193.6534041673309" height="247.2" fill="none" stroke="none" visibility="hidden"></rect></g></svg></g></svg>